<svg width="18" height="16" viewBox="0 0 18 16" fill="none" xmlns="http://www.w3.org/2000/svg">
<path d="M15.0006 4.043H2.82617C1.8176 4.043 1 4.8606 1 5.86917V13.1738C1 14.1824 1.8176 15 2.82617 15H15.0006C16.0092 15 16.8268 14.1824 16.8268 13.1738V5.86917C16.8268 4.8606 16.0092 4.043 15.0006 4.043Z" stroke="black" stroke-width="1.21744" stroke-linejoin="round"/>
<path d="M14.8241 4.043V2.90164C14.824 2.62171 14.7621 2.34525 14.6429 2.09198C14.5236 1.83871 14.35 1.61488 14.1343 1.43646C13.9186 1.25804 13.6661 1.12942 13.395 1.05979C13.1239 0.990158 12.8407 0.981225 12.5657 1.03363L2.54615 2.74376C2.11104 2.82668 1.7185 3.05884 1.43624 3.4002C1.15398 3.74157 0.9997 4.17073 1 4.61368V6.47789" stroke="black" stroke-width="1.21744" stroke-linejoin="round"/>
<path d="M13.1744 10.7389C12.9337 10.7389 12.6983 10.6675 12.4981 10.5338C12.2979 10.4 12.1418 10.2099 12.0497 9.9874C11.9575 9.76494 11.9334 9.52015 11.9804 9.28399C12.0274 9.04783 12.1433 8.8309 12.3136 8.66064C12.4838 8.49037 12.7008 8.37442 12.9369 8.32745C13.1731 8.28047 13.4179 8.30458 13.6403 8.39673C13.8628 8.48887 14.0529 8.64492 14.1867 8.84512C14.3205 9.04533 14.3919 9.28071 14.3919 9.5215C14.3919 9.84439 14.2636 10.154 14.0353 10.3824C13.807 10.6107 13.4973 10.7389 13.1744 10.7389Z" fill="black"/>
</svg>
